# xmcd
#
# Track frame offsets: 
#        15784
#        24249
#        44045
#        66098
#        83215
#        103409
#        124359
#        139542
#        165758
#        174652
#        193233
#        209837
#        225078
#        244573
#        260050
#        270386
#        284767
#        306080
#
# Disc length: 4219 seconds
#
# Revision: 4
# Processed by: cddbd v1.5.2PL0 Copyright (c) Steve Scherf et al.
# Submitted via: ExactAudioCopyFreeDBPlugin 1.0
#
DISCID=0a0fa912
DTITLE=PanzDominanz and ProMolle - Doppelalbum
DYEAR=2003
DGENRE=Rap
TTITLE0=ScharfschützenRapGewehre
TTITLE1=Nicht Perfekt
TTITLE2=Basis Beatfabrik
TTITLE3=Bunkerhunde feat. Justus
TTITLE4=Dampf
TTITLE5=Geschmack
TTITLE6=Mein Feind
TTITLE7=Wind
TTITLE8=Jeden Tag ein paar Stunden
TTITLE9=Zweiter Release
TTITLE10=Papier
TTITLE11=Mein Team
TTITLE12=Was du suchst feat. M. Staiger and Daria
TTITLE13=Rock das W
TTITLE14=Deine ist meine
TTITLE15=Labyrinth
TTITLE16=Freund und Feind feat. Separate
TTITLE17=Stars feat. FuManSchu
EXTD=
EXTT0=
EXTT1=
EXTT2=
EXTT3=
EXTT4=
EXTT5=
EXTT6=
EXTT7=
EXTT8=
EXTT9=
EXTT10=
EXTT11=
EXTT12=
EXTT13=
EXTT14=
EXTT15=
EXTT16=
EXTT17=
PLAYORDER=
